<svg width="1246" height="207" viewBox="0 0 1246 207" fill="none" xmlns="http://www.w3.org/2000/svg">
<path opacity="0.4" d="M17.8806 23.1652C17.8806 37.15 50.9442 64.6581 50.9442 48.8386C50.9442 67.0884 88.4028 51.0713 88.4028 59.1885C88.4028 84.09 126.474 55.1074 126.474 48.2773C126.474 57.4519 163.666 40.2903 163.666 35.5015C163.666 18.4275 193.255 10.6679 193.255 21.8491C193.255 20.644 226.683 31.6057 226.683 27.5808C226.683 23.7254 257.82 3.97189 257.82 19.3632C257.82 19.531 291.154 22.7392 291.154 9.68174C291.154 43.8606 321.174 24.8261 321.174 26.9454C321.174 29.0334 348.39 37.535 348.39 44.9383C348.39 70.6087 393.893 62.0117 393.893 54.0545C393.893 61.0418 429.619 31.3139 429.619 32.35C429.619 21.5269 466.682 24.2951 466.682 21.0346C466.682 24.0307 506.662 6.06434 506.662 24.1885C506.662 32.6104 543.388 38.3921 543.388 37.6961C543.388 54.1875 573.556 42.8514 573.556 56.2642C573.556 54.0921 612.387 68.0089 612.387 65.4557C612.387 84.5491 645.546 54.439 645.546 70.8765C645.546 74.4018 678.496 32.9438 678.496 53.8513C678.496 54.0084 711.771 81.9504 711.771 67.1557C711.771 64.2854 744.994 64.9741 744.994 72.1994C744.994 77.4832 778.175 65.024 778.175 73.5172C778.175 62.6235 810.986 59.7969 810.986 59.4685C810.986 45.8817 844.108 42.6263 844.108 59.5533C844.108 44.5858 881.788 34.8336 881.788 49.3122C881.788 62.2182 914.368 19.5754 914.368 37.544C914.368 22.109 951.565 13.8352 951.565 23.3847C951.565 51.1673 992.879 -5.67812 992.879 0.519483C992.879 -5.88242 1026.3 49.3583 1026.3 30.6342C1026.3 40.7758 1061.85 54.9037 1061.85 41.5217C1061.85 47.1951 1094.08 76.5122 1094.08 69.1797C1094.08 70.2624 1133.91 85.606 1133.91 72.6899C1133.91 55.8191 1169.08 32.1647 1169.08 47.6267C1169.08 66.7208 1209.49 45.2789 1209.49 49.7764C1209.49 44.1188 1239.2 38.4488 1239.2 25.4867C1239.2 24.0482 1242.14 27.3658 1246 31.8504V409.953C1238.03 404.264 1209.13 393.166 1209.13 403.928C1209.13 410.35 1162.57 405.807 1162.57 406.447C1162.57 426.492 1122.71 380.572 1122.71 378.574C1122.71 379.783 1093.81 390.45 1093.81 402.08C1093.81 413.49 1062.33 395.983 1062.33 391.47C1062.33 394.804 1058.49 350.682 1058.49 353.936C1058.49 374.468 1023.25 317.98 1023.25 338.541C1023.25 347.99 987.756 357.75 987.756 342.031C987.756 334.859 960.808 356.768 960.808 361.394C960.808 345.093 935.447 381.296 935.447 379.883C935.447 383.708 902.298 366.07 902.298 374.248C902.298 364.498 871.902 372.16 871.902 386.653C871.902 382.175 840.304 378.912 840.304 373.243C840.304 382.459 807.926 393.844 807.926 393.844C807.926 397.995 776.033 385.828 776.033 388.523C776.033 392.67 741.259 383.551 741.259 382.229C741.259 388.394 708.102 389.565 708.102 388.091C708.102 370.797 676.764 415.176 676.764 398.397C676.764 398.133 653.499 431.991 653.499 433.765C653.499 448.387 618.25 445.216 618.25 429.624C618.25 432.449 585.421 425.771 585.421 427.965C585.421 431.413 554.123 410.51 554.123 426.533C554.123 425.783 508.479 440.922 508.479 438.711C508.479 448.521 467.248 431.491 467.248 433.002C467.248 428.175 427.297 404.85 427.297 405.684C427.297 409.891 386.48 409.696 386.48 410.905C386.48 414.251 350.341 417.64 350.341 416.611C350.341 420.532 316.666 404.656 316.666 409.101C316.666 406.628 284.906 397.862 284.906 397.821C284.906 394.574 251.064 410.991 251.064 388.652C251.064 391.412 216.536 403.009 216.536 394.749C216.536 400.136 180.878 404.424 180.878 393.24C180.878 395.621 146.023 406.172 146.023 400.042C146.023 399.412 119.575 435.114 119.575 429.363C119.575 434.82 78.0394 427.907 78.0394 418.7C78.0394 418.351 48.4327 443.541 48.4327 437.542C48.4327 443.133 5.48291 445.279 5.48291 448C5.48291 436.093 1.3584 397.134 1.3584 414.347C1.3584 416.651 0.822632 415.393 0 412.288V9.44095C8.97742 9.54254 17.8806 12.785 17.8806 23.1652Z" fill="#853D03"/>
</svg>
