<svg width="305" height="247" viewBox="0 0 305 247" fill="none" xmlns="http://www.w3.org/2000/svg">
<g clip-path="url(#clip0_122_15465)">
<path d="M263.574 153.162C251.831 196.816 214.855 231.274 167.218 237.546C119.591 243.816 74.9514 220.102 52.305 180.976L50.2027 181.252C50.4547 181.699 50.711 182.143 50.9716 182.585C62.6535 202.465 79.9331 218.464 100.653 228.583C121.372 238.702 144.614 242.494 167.475 239.484C190.336 236.474 211.805 226.796 229.199 211.658C246.593 196.521 259.143 176.595 265.281 154.368C265.416 153.873 265.551 153.378 265.679 152.884L263.574 153.162ZM137.11 8.85105C184.745 2.57985 229.377 26.2966 252.02 65.4216L254.125 65.1447C253.874 64.7003 253.618 64.2595 253.36 63.8188C241.678 43.9378 224.399 27.9385 203.679 17.8188C182.96 7.69908 159.718 3.90739 136.857 6.91716C113.995 9.92693 92.5267 19.6048 75.1322 34.7423C57.7378 49.8798 45.1881 69.8061 39.0503 92.0331C38.9149 92.5257 38.7828 93.0186 38.6538 93.5118L40.7561 93.2354C52.5067 49.5821 89.4849 15.1209 137.11 8.85105ZM263.574 153.162C251.831 196.816 214.855 231.274 167.218 237.546C119.591 243.816 74.9514 220.102 52.305 180.976L50.2027 181.252C50.4547 181.699 50.711 182.143 50.9716 182.585C62.6535 202.465 79.9331 218.464 100.653 228.583C121.372 238.702 144.614 242.494 167.475 239.484C190.336 236.474 211.805 226.796 229.199 211.658C246.593 196.521 259.143 176.595 265.281 154.368C265.416 153.873 265.551 153.378 265.679 152.884L263.574 153.162ZM137.11 8.85105C184.745 2.57985 229.377 26.2966 252.02 65.4216L254.125 65.1447C253.874 64.7003 253.618 64.2595 253.36 63.8188C241.678 43.9378 224.399 27.9385 203.679 17.8188C182.96 7.69908 159.718 3.90739 136.857 6.91716C113.995 9.92693 92.5267 19.6048 75.1322 34.7423C57.7378 49.8798 45.1881 69.8061 39.0503 92.0331C38.9149 92.5257 38.7828 93.0186 38.6538 93.5118L40.7561 93.2354C52.5067 49.5821 89.4849 15.1209 137.11 8.85105ZM37.1595 91.5106C43.4009 68.9129 56.1608 48.6545 73.846 33.2647C91.5312 17.875 113.358 8.03579 136.601 4.97575C159.844 1.91572 183.474 5.77039 204.54 16.0585C225.606 26.3466 243.174 42.6122 255.051 62.8245C255.449 63.5015 255.84 64.1829 256.223 64.8685L260.401 64.3186C259.764 63.1485 259.109 61.9886 258.434 60.8389C246.167 39.9615 228.021 23.1605 206.262 12.5337C184.504 1.90695 160.097 -2.07467 136.089 1.086C112.081 4.24667 89.5366 14.4096 71.2698 30.3058C53.0031 46.2019 39.8238 67.127 33.3777 90.4681C33.0227 91.7533 32.6898 93.0433 32.3789 94.3379L36.5569 93.7881C36.7483 93.0284 36.9499 92.2674 37.1595 91.5106ZM267.172 154.891C260.93 177.488 248.169 197.745 230.484 213.134C212.799 228.523 190.972 238.362 167.729 241.422C144.487 244.482 120.857 240.628 99.7918 230.34C78.7262 220.053 61.1577 203.788 49.2795 183.577C48.8814 182.898 48.4909 182.214 48.1079 181.528L43.9303 182.078C44.5642 183.248 45.2197 184.41 45.897 185.563C58.1647 206.44 76.3107 223.241 98.0692 233.868C119.828 244.494 144.234 248.476 168.242 245.315C192.25 242.154 214.794 231.992 233.061 216.096C251.328 200.199 264.507 179.274 270.953 155.933C271.308 154.645 271.64 153.353 271.952 152.058L267.774 152.609C267.582 153.371 267.382 154.131 267.172 154.891ZM50.9716 182.585C62.6535 202.465 79.9331 218.464 100.653 228.583C121.372 238.702 144.614 242.494 167.475 239.484C190.336 236.474 211.805 226.796 229.199 211.658C246.593 196.521 259.143 176.595 265.281 154.368C265.416 153.873 265.551 153.378 265.679 152.884L263.574 153.162C251.831 196.816 214.855 231.274 167.218 237.546C119.591 243.816 74.9514 220.102 52.305 180.976L50.2027 181.252C50.4547 181.699 50.711 182.143 50.9716 182.585ZM137.11 8.85105C184.745 2.57985 229.377 26.2966 252.02 65.4216L254.125 65.1447C253.874 64.7003 253.618 64.2595 253.36 63.8188C241.678 43.9378 224.399 27.9385 203.679 17.8188C182.96 7.69908 159.718 3.90739 136.857 6.91716C113.995 9.92693 92.5267 19.6048 75.1322 34.7423C57.7378 49.8798 45.1881 69.8061 39.0503 92.0331C38.9149 92.5257 38.7828 93.0186 38.6538 93.5118L40.7561 93.2354C52.5067 49.5821 89.4849 15.1209 137.11 8.85105Z" fill="#FF7708"/>
<path d="M202.748 57.279C185.14 43.7709 163.323 37.9253 141.317 40.8223C119.313 43.7192 99.7533 55.0123 86.245 72.6169C82.4602 77.5422 79.2355 82.8734 76.6304 88.5122L216.149 70.1444C212.173 65.372 207.678 61.0569 202.748 57.279ZM101.585 189.117C119.189 202.626 141.005 208.471 163.012 205.579C185.016 202.68 204.575 191.387 218.083 173.783C221.868 168.856 225.092 163.524 227.697 157.885L88.1819 176.252C92.1577 181.025 96.6531 185.34 101.585 189.117ZM84.6884 71.4225C98.5182 53.4022 118.536 41.8436 141.061 38.8782C163.59 35.9121 185.92 41.8952 203.941 55.7251C209.314 59.8411 214.18 64.5803 218.436 69.8433L220.686 69.5468C202.328 46.1463 172.435 32.7672 140.805 36.9339C109.181 41.0971 83.7712 61.7521 72.098 89.109L74.3387 88.814C77.0881 82.6276 80.5624 76.7896 84.6884 71.4225ZM219.64 174.974C205.813 192.997 185.792 204.556 163.268 207.523C140.741 210.484 118.41 204.501 100.39 190.674C95.0154 186.557 90.1478 181.817 85.8897 176.554L83.6469 176.849C102.002 200.25 131.895 213.624 163.524 209.468C195.152 205.301 220.559 184.645 232.235 157.288L229.989 157.583C227.24 163.769 223.766 169.607 219.64 174.974ZM202.748 57.279C185.14 43.7709 163.323 37.9253 141.317 40.8223C119.313 43.7192 99.7533 55.0123 86.245 72.6169C82.4602 77.5422 79.2355 82.8734 76.6304 88.5122L216.149 70.1444C212.173 65.372 207.678 61.0569 202.748 57.279ZM101.585 189.117C119.189 202.626 141.005 208.471 163.012 205.579C185.016 202.68 204.575 191.387 218.083 173.783C221.868 168.856 225.092 163.524 227.697 157.885L88.1819 176.252C92.1577 181.025 96.6531 185.34 101.585 189.117ZM202.748 57.279C185.14 43.7709 163.323 37.9253 141.317 40.8223C119.313 43.7192 99.7533 55.0123 86.245 72.6169C82.4602 77.5422 79.2355 82.8734 76.6304 88.5122L216.149 70.1444C212.173 65.372 207.678 61.0569 202.748 57.279ZM101.585 189.117C119.189 202.626 141.005 208.471 163.012 205.579C185.016 202.68 204.575 191.387 218.083 173.783C221.868 168.856 225.092 163.524 227.697 157.885L88.1819 176.252C92.1577 181.025 96.6531 185.34 101.585 189.117Z" fill="#FF7708"/>
<path d="M159.464 178.648L166.068 173.978L165.765 182.073L172.251 186.907L164.454 189.115L161.852 196.785L157.357 190.049L149.251 189.935L154.264 183.587L151.87 175.848L159.464 178.648Z" fill="#490606"/>
<path d="M135.15 180.52L139.467 177.481L139.266 182.761L143.501 185.926L138.409 187.356L136.709 192.363L133.775 187.965L128.485 187.904L131.76 183.749L130.199 178.701L135.15 180.52Z" fill="#490606"/>
<path d="M183.425 174.164L187.75 171.124L187.55 176.404L191.783 179.569L186.698 180.998L184.984 186.008L182.054 181.609L176.772 181.546L180.044 177.393L178.47 172.345L183.425 174.164Z" fill="#490606"/>
<path d="M144.865 67.7521L138.255 72.426L138.564 64.3358L132.077 59.4816L139.878 57.282L142.477 49.6178L146.975 56.3476L155.08 56.4532L150.065 62.8212L152.453 70.5566L144.865 67.7521Z" fill="#490606"/>
<path d="M169.169 65.8733L164.855 68.9238L165.068 63.6389L160.834 60.4771L165.917 59.0366L167.611 54.0324L170.562 58.4253L175.847 58.5006L172.575 62.6504L174.137 67.7016L169.169 65.8733Z" fill="#490606"/>
<path d="M120.893 72.2293L116.582 75.2794L116.784 69.9957L112.545 66.8344L117.637 65.3925L119.334 60.388L122.272 64.783L127.562 64.8569L124.29 69.0075L125.851 74.0587L120.893 72.2293Z" fill="#490606"/>
<path d="M291.023 78.4125C289.4 75.6034 286.98 73.3384 284.071 71.9036C281.161 70.4687 277.891 69.9285 274.674 70.351L20.1502 103.86C15.837 104.429 11.9263 106.687 9.27768 110.139C6.62903 113.59 5.45915 117.952 6.02518 122.265L11.2464 161.924C11.5277 164.059 12.2269 166.119 13.3042 167.985C14.3815 169.85 15.8157 171.486 17.525 172.797C19.2343 174.108 21.1851 175.07 23.2661 175.628C25.3471 176.185 27.5175 176.327 29.6534 176.046L284.183 142.536C288.495 141.965 292.404 139.707 295.052 136.256C297.699 132.805 298.869 128.444 298.304 124.132L293.082 84.4733C292.802 82.3371 292.102 80.2773 291.023 78.4125ZM296.359 124.388C296.858 128.185 295.829 132.025 293.498 135.064C291.166 138.102 287.724 140.091 283.927 140.592L29.3977 174.101C25.5997 174.601 21.7587 173.572 18.7194 171.24C15.68 168.909 13.6912 165.465 13.1904 161.667L7.96925 122.009C7.47047 118.211 8.50045 114.371 10.8327 111.332C13.1649 108.293 16.6085 106.305 20.4063 105.804L274.93 72.2956C276.811 72.0478 278.722 72.1728 280.554 72.6636C282.386 73.1543 284.104 74.0011 285.609 75.1557C287.114 76.3103 288.377 77.75 289.325 79.3926C290.274 81.0353 290.89 82.8487 291.137 84.7293L296.359 124.388Z" fill="#FF7708"/>
<path d="M296.12 75.4716C293.914 71.6547 290.627 68.5771 286.673 66.6276C282.72 64.6781 278.277 63.9441 273.906 64.5185L19.3825 98.027C13.5224 98.7998 8.20909 101.868 4.61054 106.557C1.012 111.246 -0.577228 117.173 0.192259 123.033L5.41325 162.691C6.18656 168.551 9.2554 173.864 13.945 177.462C18.6347 181.06 24.5612 182.649 30.4216 181.878L284.951 148.369C290.81 147.595 296.121 144.526 299.719 139.837C303.316 135.148 304.905 129.223 304.136 123.364L298.914 83.7056C298.535 80.8033 297.586 78.0049 296.12 75.4716ZM300.247 123.876C300.881 128.705 299.571 133.588 296.605 137.452C293.64 141.316 289.262 143.844 284.433 144.481L29.9096 177.99C25.0804 178.625 20.1966 177.316 16.3322 174.351C12.4678 171.386 9.93902 167.008 9.30195 162.179L4.08077 122.521C3.44753 117.692 4.7574 112.809 7.72253 108.945C10.6877 105.082 15.0655 102.553 19.8939 101.915L274.418 68.407C279.248 67.7713 284.132 69.0798 287.996 72.0448C291.861 75.0098 294.389 79.3884 295.026 84.2176L300.247 123.876Z" fill="#FF7708"/>
<path d="M68.9283 129.845C68.6671 130.196 68.4545 130.314 67.7476 130.396C66.9289 130.49 66.1855 130.255 65.7562 129.475L64.5413 127.278C63.8036 125.949 63.2533 125.918 62.5707 125.884C62.0018 125.855 61.5467 125.832 61.2862 125.862L61.8762 130.979L61.0576 131.073C59.9227 131.204 59.2479 130.584 59.1299 129.561L57.8984 118.882C58.4144 118.615 60.1704 118.148 61.1193 118.039L62.5333 117.876C65.0636 117.584 66.8953 118.919 67.1421 121.058C67.3416 122.789 66.3719 124.352 64.9092 124.747C65.6298 124.947 66.2945 125.643 66.6966 126.351L67.9945 128.614C68.3966 129.322 68.7537 129.639 68.9283 129.845ZM62.4888 120.106L61.7818 120.187C61.5399 120.215 60.9324 120.342 60.6619 120.448L61.0502 123.816C61.6212 123.863 62.198 123.796 62.8864 123.717C63.9283 123.597 64.734 122.901 64.6032 121.766C64.4251 120.222 63.6051 119.977 62.4888 120.106ZM79.0632 126.584L79.1476 127.479C79.247 128.504 78.7904 129.122 76.5578 129.38L75.1996 129.536C72.0926 129.895 70.2579 128.372 69.8825 125.116L69.61 122.753C69.4705 121.544 69.4069 120.175 69.4378 119.135C69.4665 117.585 70.1284 117.113 71.1703 116.993L77.8309 116.225L77.9296 117.081C78.0326 117.974 77.5446 118.482 76.3724 118.618L72.0003 119.122C71.9773 120.067 72.0652 121.32 72.1575 122.12L77.0692 121.554L77.1744 122.465C77.2709 123.303 76.7886 123.697 75.7653 123.816L72.3978 124.204L72.4836 124.948C72.7389 127.162 73.5139 127.506 75.486 127.279L76.3046 127.184C77.2349 127.077 78.1751 126.893 79.0632 126.584ZM90.7843 124.647C91.0053 126.564 90.0907 127.951 86.9092 128.318C83.5231 128.709 80.2631 126.596 79.804 122.615C79.3706 118.856 81.6485 115.558 86.002 115.056C88.3835 114.782 89.5777 115.983 89.715 117.173L89.8159 118.048L89.7228 118.058C88.7833 117.431 87.31 117.243 85.9704 117.398C83.6076 117.67 82.114 119.596 82.3865 121.959C82.7577 125.177 84.6525 126.241 86.9409 125.977C88.1688 125.835 88.4129 125.336 88.327 124.592L88.209 123.568C88.0932 122.564 87.8084 121.729 87.8084 121.729L89.1108 121.579C89.8178 121.497 90.4839 122.043 90.5483 122.601L90.7843 124.647ZM101.647 123.979L101.732 124.874C101.831 125.9 101.374 126.518 99.1419 126.776L97.7837 126.932C94.6767 127.29 92.842 125.768 92.4666 122.512L92.1941 120.149C92.0546 118.94 91.991 117.571 92.0219 116.53C92.0506 114.981 92.7125 114.509 93.7544 114.389L100.415 113.62L100.514 114.476C100.617 115.369 100.129 115.878 98.9565 116.013L94.5844 116.517C94.5614 117.463 94.6493 118.716 94.7416 119.516L99.6533 118.949L99.7585 119.861C99.855 120.698 99.3727 121.093 98.3494 121.211L94.9819 121.599L95.0677 122.344C95.323 124.558 96.098 124.902 98.0701 124.675L98.8887 124.58C99.819 124.473 100.759 124.289 101.647 123.979ZM111.673 121.239C111.963 123.751 110.442 125.604 107.354 125.961C104.786 126.257 103.349 125.404 103.176 123.897L103.045 122.762L103.101 122.756C104.044 123.42 105.269 123.901 106.813 123.723C108.729 123.502 109.268 122.78 109.15 121.757C109.049 120.882 108.669 120.53 105.905 120.264C103.693 120.048 102.341 119.111 102.141 117.38C101.897 115.259 103.451 113.044 106.447 112.699C109.423 112.355 110.425 113.522 110.547 114.582L110.683 115.754L110.608 115.763C109.73 115.016 108.548 114.738 107.153 114.898C105.181 115.126 104.53 115.861 104.644 116.847C104.732 117.61 105.381 118.006 107.82 118.234C110.202 118.449 111.476 119.528 111.673 121.239ZM121.788 111.966C121.859 112.58 121.265 113.478 120.428 113.575L118.084 113.845L119.296 124.357L118.273 124.475C117.38 124.578 116.662 124.076 116.531 122.942L115.516 114.141L111.851 114.564L111.755 113.727C111.684 113.113 112.096 112.273 113.138 112.153L121.696 111.166L121.788 111.966ZM133.025 120.361L133.11 121.256C133.209 122.281 132.752 122.9 130.52 123.157L129.162 123.314C126.055 123.672 124.22 122.149 123.844 118.893L123.572 116.53C123.433 115.321 123.369 113.952 123.4 112.912C123.429 111.363 124.09 110.89 125.132 110.77L131.793 110.002L131.892 110.858C131.995 111.751 131.507 112.26 130.334 112.395L125.962 112.899C125.939 113.844 126.027 115.097 126.119 115.897L131.031 115.331L131.136 116.243C131.233 117.08 130.751 117.475 129.727 117.593L126.36 117.981L126.446 118.725C126.701 120.939 127.476 121.284 129.448 121.056L130.267 120.962C131.197 120.854 132.137 120.671 133.025 120.361ZM144.511 121.129C144.25 121.479 144.038 121.598 143.331 121.68C142.512 121.774 141.769 121.539 141.339 120.759L140.124 118.562C139.387 117.233 138.836 117.202 138.154 117.168C137.585 117.139 137.13 117.116 136.869 117.146L137.459 122.263L136.641 122.357C135.506 122.488 134.831 121.868 134.713 120.845L133.482 110.166C133.998 109.899 135.754 109.432 136.702 109.323L138.116 109.16C140.647 108.868 142.479 110.203 142.725 112.342C142.925 114.072 141.955 115.636 140.492 116.031C141.213 116.231 141.878 116.927 142.28 117.635L143.578 119.898C143.98 120.606 144.337 120.923 144.511 121.129ZM138.072 111.389L137.365 111.471C137.123 111.499 136.516 111.625 136.245 111.732L136.633 115.1C137.204 115.147 137.781 115.08 138.47 115.001C139.511 114.881 140.317 114.185 140.186 113.05C140.008 111.506 139.188 111.261 138.072 111.389ZM157.854 107.807C157.925 108.421 157.331 109.319 156.494 109.416L154.149 109.686L155.362 120.198L154.338 120.316C153.445 120.419 152.728 119.917 152.597 118.783L151.582 109.982L147.917 110.405L147.82 109.568C147.749 108.954 148.162 108.114 149.203 107.994L157.762 107.007L157.854 107.807ZM171.306 111.705C171.752 115.574 169.875 118.751 165.986 119.199C162.768 119.57 159.865 117.285 159.425 113.471C158.968 109.508 160.874 106.422 164.744 105.976C167.833 105.62 170.84 107.667 171.306 111.705ZM168.723 112.361C168.378 109.365 166.92 108.006 164.762 108.255C162.883 108.472 161.703 110.173 162.003 112.777C162.357 115.847 163.647 117.225 165.973 116.957C167.945 116.73 169.047 115.17 168.723 112.361ZM188.348 116.394L187.306 116.514C186.246 116.637 185.617 116.087 185.453 115.484C185.245 114.659 185.058 114.021 184.865 113.497L179.786 114.082C179.65 115.191 179.554 116.315 179.492 117.415L178.506 117.529C177.669 117.626 177.282 117.218 177.192 116.436C176.98 114.595 178.497 106.822 180.199 104.42L181.241 104.3C182.264 104.182 183.017 104.661 183.441 105.234C184.833 107.166 187.382 112.433 188.348 116.394ZM184.055 111.535C183.421 109.798 182.3 107.76 181.493 106.646C180.901 108.053 180.335 110.173 180.111 111.99L184.055 111.535ZM197.353 103.252C197.424 103.866 196.83 104.764 195.993 104.861L193.649 105.131L194.861 115.643L193.838 115.761C192.945 115.864 192.227 115.362 192.096 114.228L191.081 105.427L187.416 105.85L187.32 105.013C187.249 104.399 187.661 103.559 188.703 103.439L197.261 102.452L197.353 103.252ZM207.673 102.062C207.744 102.676 207.15 103.574 206.313 103.671L203.969 103.941L205.181 114.453L204.158 114.571C203.265 114.674 202.547 114.172 202.416 113.037L201.401 104.237L197.736 104.66L197.64 103.823C197.569 103.209 197.981 102.369 199.023 102.249L207.581 101.262L207.673 102.062ZM218.91 110.457L218.995 111.352C219.094 112.377 218.637 112.996 216.405 113.253L215.047 113.41C211.94 113.768 210.105 112.245 209.729 108.989L209.457 106.626C209.318 105.417 209.254 104.048 209.285 103.008C209.314 101.458 209.975 100.986 211.017 100.866L217.678 100.098L217.777 100.954C217.88 101.847 217.392 102.356 216.219 102.491L211.847 102.995C211.824 103.94 211.912 105.193 212.004 105.993L216.916 105.427L217.021 106.338C217.118 107.176 216.636 107.571 215.612 107.689L212.245 108.077L212.331 108.821C212.586 111.035 213.361 111.379 215.333 111.152L216.152 111.058C217.082 110.95 218.022 110.767 218.91 110.457ZM231.177 111.455L230.172 111.571C229.186 111.685 228.073 111.512 226.137 108.624L223.291 104.371C222.855 103.705 222.521 103.253 222.263 102.982L223.344 112.359L222.34 112.474C221.595 112.56 220.731 112.094 220.602 110.978L219.326 99.908L220.591 99.7621C222.265 99.569 223.447 100.338 224.501 101.951L227.248 106.158C227.569 106.649 227.954 107.378 228.19 107.784L227.177 99.0026L228.312 98.8717C228.963 98.7966 229.783 99.362 229.877 100.181L231.177 111.455ZM243.303 103.402C243.747 107.253 241.543 110.373 238.213 110.757L237.152 110.879C234.994 111.128 233.519 110.431 233.291 108.459L232.186 98.8774C232.773 98.5647 234.307 98.1426 235.275 98.031L236.596 97.8787C239.517 97.5419 242.812 99.1414 243.303 103.402ZM240.739 104.056C240.411 101.209 238.647 99.8102 236.452 100.063L235.894 100.128C235.578 100.164 234.941 100.37 234.941 100.37L235.785 107.681C235.87 108.426 236.244 108.722 237.193 108.612L237.621 108.563C239.723 108.321 241.005 106.363 240.739 104.056ZM107.526 148.867L106.558 148.978C105.591 149.09 104.859 148.628 104.726 147.474C104.539 145.856 103.722 141.218 103.371 139.976C103.251 140.405 103.069 140.954 102.95 141.552L101.794 147.228C101.602 148.174 101.31 149.075 101.014 149.618L100.326 149.697C99.4885 149.794 98.6692 149.228 98.0453 147.905L95.6019 142.739C95.3036 142.113 94.9179 141.385 94.6804 140.96C94.5558 142.822 94.9225 147.964 95.1907 150.289L94.2977 150.392C93.3488 150.502 92.6268 149.963 92.5024 148.884C92.1741 146.037 92.0779 140.298 92.2512 137.714L92.7908 137.652C94.5583 137.448 95.8971 138.105 96.5374 139.407L98.8799 144.189C99.395 145.223 99.7063 145.96 99.8844 146.524C99.9217 146.03 100.007 145.624 100.088 145.181L101.036 140.491C101.453 138.388 102.124 137.009 102.596 136.521L102.893 136.487C104.307 136.324 105.341 137.11 105.747 138.835C106.22 140.817 107.232 146.318 107.526 148.867ZM119.924 147.437L118.882 147.557C117.821 147.68 117.192 147.13 117.029 146.527C116.82 145.702 116.634 145.064 116.441 144.54L111.362 145.125C111.226 146.234 111.129 147.358 111.068 148.458L110.082 148.572C109.244 148.669 108.858 148.261 108.768 147.479C108.555 145.637 110.072 137.865 111.775 135.463L112.817 135.343C113.84 135.225 114.593 135.704 115.017 136.277C116.409 138.209 118.958 143.476 119.924 147.437ZM115.631 142.578C114.997 140.841 113.876 138.803 113.068 137.689C112.477 139.096 111.91 141.216 111.686 143.033L115.631 142.578ZM129.461 142.341C129.751 144.852 128.23 146.706 125.142 147.062C122.574 147.358 121.137 146.505 120.963 144.998L120.833 143.863L120.888 143.857C121.832 144.521 123.057 145.002 124.601 144.824C126.517 144.603 127.056 143.881 126.938 142.858C126.837 141.983 126.457 141.631 123.693 141.366C121.481 141.149 120.129 140.212 119.929 138.482C119.685 136.361 121.239 134.145 124.234 133.8C127.211 133.457 128.213 134.623 128.335 135.684L128.47 136.856L128.396 136.864C127.518 136.117 126.336 135.839 124.941 136C122.968 136.227 122.318 136.962 122.432 137.948C122.52 138.711 123.169 139.107 125.608 139.335C127.989 139.55 129.264 140.629 129.461 142.341ZM139.576 133.068C139.647 133.682 139.053 134.58 138.216 134.676L135.872 134.946L137.084 145.458L136.061 145.576C135.168 145.679 134.45 145.178 134.319 144.043L133.304 135.243L129.639 135.665L129.542 134.828C129.472 134.214 129.884 133.375 130.926 133.254L139.484 132.268L139.576 133.068ZM150.813 141.462L150.897 142.357C150.997 143.383 150.54 144.001 148.308 144.258L146.949 144.415C143.842 144.773 142.008 143.25 141.632 139.994L141.36 137.632C141.22 136.422 141.157 135.053 141.188 134.013C141.216 132.464 141.878 131.991 142.92 131.871L149.581 131.103L149.679 131.959C149.782 132.852 149.294 133.361 148.122 133.496L143.75 134C143.727 134.945 143.815 136.198 143.907 136.998L148.819 136.432L148.924 137.344C149.021 138.181 148.538 138.576 147.515 138.694L144.148 139.082L144.233 139.826C144.489 142.04 145.264 142.385 147.236 142.157L148.054 142.063C148.985 141.956 149.925 141.772 150.813 141.462ZM162.299 142.23C162.038 142.581 161.826 142.699 161.119 142.781C160.3 142.875 159.556 142.641 159.127 141.861L157.912 139.663C157.175 138.334 156.624 138.303 155.942 138.269C155.373 138.24 154.918 138.217 154.657 138.247L155.247 143.364L154.429 143.458C153.294 143.589 152.619 142.969 152.501 141.946L151.269 131.267C151.785 131 153.541 130.533 154.49 130.424L155.904 130.261C158.435 129.969 160.266 131.304 160.513 133.443C160.713 135.174 159.743 136.737 158.28 137.132C159.001 137.332 159.666 138.028 160.068 138.736L161.366 140.999C161.768 141.707 162.125 142.024 162.299 142.23ZM155.86 132.491L155.153 132.572C154.911 132.6 154.303 132.727 154.033 132.833L154.421 136.201C154.992 136.248 155.569 136.182 156.257 136.102C157.299 135.982 158.105 135.286 157.974 134.151C157.796 132.607 156.976 132.362 155.86 132.491ZM172.525 131.907L172.432 131.918C171.512 130.968 169.873 130.818 168.775 130.945C166.505 131.206 165.001 133.039 165.287 135.513C165.632 138.509 167.462 139.825 169.862 139.548C171.127 139.402 172.483 138.737 173.088 137.932L173.181 137.921L173.29 138.87C173.492 140.619 171.55 141.597 169.782 141.801C166.396 142.191 163.202 139.996 162.762 136.182C162.309 132.256 164.613 129.181 168.501 128.733C170.585 128.493 172.209 129.172 172.411 130.921L172.525 131.907ZM183.219 138.385C183.348 139.501 182.874 140.291 180.771 140.533L179.785 140.647C176.79 140.993 174.941 139.509 174.589 136.458L173.651 128.327L174.693 128.207C175.735 128.087 176.343 128.62 176.489 129.885L177.193 135.988C177.416 137.923 177.944 138.578 179.86 138.357L180.512 138.282C181.721 138.143 182.675 137.75 183.119 137.51L183.219 138.385ZM194.907 138.79L193.865 138.91C192.805 139.033 192.176 138.483 192.012 137.88C191.804 137.055 191.617 136.417 191.425 135.893L186.346 136.478C186.21 137.587 186.113 138.711 186.051 139.811L185.065 139.925C184.228 140.022 183.842 139.614 183.751 138.832C183.539 136.991 185.056 129.218 186.758 126.816L187.8 126.696C188.824 126.578 189.576 127.057 190.001 127.63C191.392 129.562 193.942 134.829 194.907 138.79ZM190.614 133.931C189.98 132.194 188.859 130.156 188.052 129.042C187.46 130.449 186.894 132.569 186.67 134.386L190.614 133.931ZM204.445 133.694C204.734 136.205 203.214 138.059 200.125 138.415C197.558 138.711 196.121 137.858 195.947 136.351L195.816 135.217L195.872 135.21C196.816 135.874 198.04 136.355 199.584 136.177C201.501 135.956 202.04 135.234 201.922 134.211C201.821 133.336 201.441 132.984 198.676 132.719C196.465 132.502 195.112 131.565 194.913 129.835C194.668 127.714 196.223 125.498 199.218 125.153C202.195 124.81 203.197 125.976 203.319 127.037L203.454 128.209L203.38 128.217C202.502 127.47 201.319 127.192 199.924 127.353C197.952 127.58 197.301 128.315 197.415 129.301C197.503 130.064 198.152 130.46 200.592 130.688C202.973 130.904 204.247 131.982 204.445 133.694ZM215.092 132.466C215.381 134.978 213.861 136.831 210.772 137.187C208.205 137.483 206.768 136.631 206.594 135.124L206.463 133.989L206.519 133.982C207.463 134.646 208.687 135.127 210.231 134.949C212.148 134.728 212.687 134.006 212.569 132.983C212.468 132.109 212.088 131.757 209.324 131.491C207.112 131.275 205.759 130.337 205.56 128.607C205.315 126.486 206.87 124.271 209.865 123.925C212.842 123.582 213.844 124.748 213.966 125.809L214.101 126.981L214.027 126.99C213.149 126.242 211.967 125.964 210.571 126.125C208.599 126.352 207.948 127.087 208.062 128.073C208.15 128.836 208.799 129.233 211.239 129.46C213.62 129.676 214.894 130.754 215.092 132.466Z" fill="#FF7300"/>
</g>
<defs>
<clipPath id="clip0_122_15465">
<rect width="304.328" height="246.397" fill="white"/>
</clipPath>
</defs>
</svg>
