<svg width="813" height="112" viewBox="0 0 813 112" fill="none" xmlns="http://www.w3.org/2000/svg">
<path d="M530.106 74.0183C530.106 84.4188 525.215 89.7429 515.496 89.7429C507.262 89.7429 500.762 84.295 500.762 74.5755V55.5697H502.309C507.076 55.5697 509.181 57.6127 509.181 61.5129V73.7707C509.181 79.8995 512.153 82.3759 515.929 82.3759C519.334 82.3759 521.748 80.0234 521.748 74.3278V55.5697H523.234C528.063 55.5697 530.106 57.6127 530.106 61.5129V74.0183ZM570.007 71.2943C570.007 82.0044 564.683 89.7429 554.963 89.7429C551.249 89.7429 548.215 87.638 546.544 84.7903C546.544 89.4334 546.544 99.5243 546.544 99.5243H543.943C540.972 99.5243 538.124 97.3576 538.124 93.7669V73.5849C538.124 62.5034 543.077 54.8268 554.839 54.8268C563.692 54.8268 570.007 62.8749 570.007 71.2943ZM561.463 73.4611C561.463 65.5988 558.863 62.1939 553.539 62.1939C548.958 62.1939 546.42 66.156 546.42 71.9134C546.42 78.5995 549.701 82.3759 554.653 82.3759C558.677 82.3759 561.463 78.7852 561.463 73.4611Z" fill="#FF7708"/>
<path d="M616.301 49.2551C616.301 51.2362 614.815 53.6506 611.472 53.6506H598.41V64.1749H613.701V66.7132C613.701 69.4371 611.534 70.9229 609.615 70.9229H598.719C598.719 83.2426 598.719 89 598.719 89H595.191C592.095 89 590.238 87.3904 590.238 84.0474V53.1553C590.238 47.8931 592.343 46.5931 597.295 46.5931H616.301C616.301 46.8407 616.301 49.2551 616.301 49.2551ZM648.816 67.7656C648.816 73.8945 644.173 75.8755 633.153 75.8755H627.705C628.324 80.0853 632.163 82.7473 637.053 82.7473C640.52 82.7473 644.606 82.0663 647.268 79.59H647.578V82.1901C647.578 86.4618 644.668 89.7429 635.506 89.7429C627.21 89.7429 619.1 83.1807 619.1 72.9659C619.1 61.8224 625.91 54.8268 635.444 54.8268C642.377 54.8268 648.816 59.7795 648.816 67.7656ZM641.015 66.7751C641.015 63.432 638.539 61.7605 634.701 61.7605C630.677 61.7605 627.891 65.0416 627.705 68.8799L627.643 69.9943H631.358C639.22 69.9943 641.015 69.1276 641.015 66.7751ZM679.189 78.4757C679.189 85.5332 674.236 89.7429 665.26 89.7429C659.131 89.7429 654.55 86.5856 654.55 83.1807V79.4043H654.859C656.654 81.0758 660.926 82.5616 664.888 82.5616C668.974 82.5616 670.955 81.3853 670.955 78.909C670.955 76.9899 669.779 76.0612 664.021 75.2564C656.964 74.2659 653.559 71.4801 653.559 66.4036C653.559 60.1509 659.193 54.8268 667.736 54.8268C675.289 54.8268 678.384 58.727 678.384 61.9462V65.1035H678.075C676.341 63.3701 672.503 62.0082 668.541 62.0082C663.464 62.0082 661.855 63.5558 661.855 65.7226C661.855 67.3941 662.845 68.0751 668.541 69.0037C675.474 70.1181 679.189 73.1516 679.189 78.4757ZM685.948 56.9317C685.948 53.6506 686.568 52.4124 688.363 50.3076C689.477 49.0075 690.963 48.017 692.263 48.017H694.182V55.5697H705.759V58.9747C705.759 60.7081 704.211 62.9368 700.806 62.9368H694.182V75.9993C694.182 80.3329 696.101 82.0044 699.444 82.0044C702.106 82.0044 704.149 81.633 705.449 80.8282H705.759V83.7997C705.759 87.2047 703.283 89.3714 698.454 89.3714C690.034 89.3714 685.948 84.7903 685.948 76.9899V56.9317ZM720.758 48.3265C720.758 50.9885 718.529 53.2172 715.867 53.2172C713.205 53.2172 711.038 50.9885 711.038 48.3265C711.038 45.6645 713.205 43.4977 715.867 43.4977C718.529 43.4977 720.758 45.6645 720.758 48.3265ZM726.701 84.295C726.701 87.8857 725.277 89.3095 721.748 89.3095C715.31 89.3095 711.781 85.657 711.781 78.909C711.781 76.9899 711.781 56.3126 711.781 56.3126H714.134C717.848 56.3126 720.077 58.2937 720.077 62.5034V78.1042C720.077 81.4472 721.501 82.4997 725.153 82.4997H726.701V84.295ZM758.398 59.5318C758.398 60.5224 757.593 64.5464 755.55 70.1181C753.322 76.247 749.607 84.295 745.893 89.3714H744.283C741.807 89.3714 740.507 88.5047 738.835 86.0284C734.316 79.1566 728.62 64.6083 727.878 55.5697H732.335C735.183 55.5697 736.978 57.7365 737.288 59.5318C738.464 65.7226 740.135 72.161 743.664 79.0328C746.821 72.7801 749.731 63.9273 750.969 55.5697H754.498C757.346 55.5697 758.398 56.8079 758.398 59.5318ZM789.513 77.6089C789.513 84.6664 784.313 89.5572 776.884 89.5572H775.212C767.288 89.5572 761.84 85.0998 761.84 78.9709C761.84 73.0278 766.174 68.5085 778.432 68.5085H781.341V68.0751C781.341 63.3701 779.113 61.9462 774.16 61.9462C768.155 61.9462 764.812 64.2368 763.574 65.7845H763.264V63.1225C763.264 59.408 766.607 54.9507 775.398 54.9507C782.827 54.9507 789.513 58.4175 789.513 69.9324V77.6089ZM781.403 77.6709V74.4516H778.432C772.117 74.4516 770.322 75.9374 770.322 78.6614C770.322 81.2615 772.427 82.8092 776.079 82.8092C779.67 82.8092 781.403 81.0758 781.403 77.6709ZM812.561 84.295C812.561 87.8857 810.642 89.3095 806.99 89.3095C800.118 89.3095 796.403 85.657 796.403 78.909V44.4263H798.756C802.904 44.4263 804.699 46.8407 804.699 49.998V78.1042C804.699 81.4472 806.432 82.4997 810.333 82.4997H812.561V84.295Z" fill="white"/>
<path d="M445.715 80.4103C445.715 88.7679 440.02 94.2777 429.743 94.2777C421.2 94.2777 416.804 90.9347 416.804 85.9201V82.1438H416.99C419.838 84.682 423.676 86.725 428.815 86.725C435.191 86.725 437.234 84.5582 437.234 81.1532C437.234 78.2436 436.12 76.9435 427.143 75.0244C419.962 73.4767 415.876 69.886 415.876 64.1286C415.876 57.0711 421.819 50.385 431.786 50.385C441.691 50.385 444.539 54.5947 444.539 58.1235V62.0237H444.292C441.691 59.2378 437.915 57.8759 433.272 57.8759C426.71 57.8759 424.295 60.0426 424.295 63.3238C424.295 65.862 426.276 67.4097 434.201 69.0812C441.939 70.6908 445.715 74.7148 445.715 80.4103Z" fill="#FF7708"/>
<path d="M38.3876 79.1566C38.3876 85.5332 34.8589 89.7429 24.2726 89.7429C13.0054 89.7429 3.10013 81.5711 3.10013 68.3228C3.10013 55.8174 11.8291 45.8502 26.3156 45.8502C34.2398 45.8502 37.7067 50.2456 37.7067 54.2078V57.1174H37.3971C34.5493 54.703 29.7824 53.5268 25.3251 53.5268C17.4628 53.5268 11.8291 59.2842 11.8291 67.1465C11.8291 77.8566 17.6485 82.0663 25.2632 82.0663C29.3491 82.0663 30.3396 80.5186 30.3396 78.0423V74.6374C30.3396 71.2943 29.7205 68.4466 29.7205 68.4466H34.0541C36.4066 68.4466 38.3876 70.4895 38.3876 72.3468V79.1566ZM43.4825 72.9039C43.4825 62.8749 49.2399 54.8268 60.0119 54.8268C70.041 54.8268 75.7984 62.8749 75.7984 71.7277C75.7984 81.7568 70.041 89.7429 59.269 89.7429C49.2399 89.7429 43.4825 81.7568 43.4825 72.9039ZM67.1932 72.9039C67.1932 66.2179 64.7169 62.2558 59.269 62.2558C54.5021 62.2558 52.0877 66.2179 52.0877 71.7277C52.0877 78.3518 54.5021 82.3139 60.0119 82.3139C64.8407 82.3139 67.1932 78.3518 67.1932 72.9039ZM98.7391 84.295C98.7391 87.8857 96.82 89.3095 93.1674 89.3095C86.2956 89.3095 82.5812 85.657 82.5812 78.909V44.4263H84.9337C89.0815 44.4263 90.8768 46.8407 90.8768 49.998V78.1042C90.8768 81.4472 92.6103 82.4997 96.5105 82.4997H98.7391V84.295ZM132.49 73.5849C132.49 83.3045 127.908 89.7429 116.455 89.7429C107.665 89.7429 100.917 82.0663 100.917 72.9039C100.917 61.9462 106.241 54.8268 115.96 54.8268C119.303 54.8268 122.956 57.1793 124.256 60.089V44.4263H126.794C130.756 44.4263 132.49 46.7169 132.49 50.0599V73.5849ZM124.132 73.2135C124.132 64.8559 120.479 61.8224 116.022 61.8224C111.812 61.8224 109.088 65.9083 109.088 71.2943C109.088 78.228 112.679 82.7473 117.446 82.7473C122.089 82.7473 124.132 79.2805 124.132 73.2135ZM168.72 67.7656C168.72 73.8945 164.077 75.8755 153.058 75.8755H147.61C148.229 80.0853 152.067 82.7473 156.958 82.7473C160.425 82.7473 164.51 82.0663 167.173 79.59H167.482V82.1901C167.482 86.4618 164.572 89.7429 155.41 89.7429C147.114 89.7429 139.004 83.1807 139.004 72.9659C139.004 61.8224 145.814 54.8268 155.348 54.8268C162.282 54.8268 168.72 59.7795 168.72 67.7656ZM160.92 66.7751C160.92 63.432 158.444 61.7605 154.605 61.7605C150.581 61.7605 147.795 65.0416 147.61 68.8799L147.548 69.9943H151.262C159.124 69.9943 160.92 69.1276 160.92 66.7751ZM204.479 89H202.251C198.536 89 196.184 86.6475 196.184 83.5521V70.3038C196.184 64.6702 193.707 62.1939 189.436 62.1939C185.845 62.1939 183.369 64.9178 183.369 69.6847V89H180.892C177.364 89 175.073 86.6475 175.073 83.5521V69.1276C175.073 62.0701 179.716 54.8268 190.117 54.8268C197.979 54.8268 204.479 60.089 204.479 69.5609V89ZM256.182 59.4699C256.182 68.4466 249.991 73.9564 241.881 73.9564C238.909 73.9564 236.495 73.4611 234.761 72.5325V89H231.418C229.066 89 226.28 87.4523 226.28 82.933V48.2646C228.633 47.3979 234.266 46.2835 237.3 46.2835H242.067C250.3 46.2835 256.182 50.9885 256.182 59.4699ZM247.453 60.2128C247.453 55.384 245.472 53.4649 241.014 53.4649H238.29C237.238 53.4649 235.752 53.8363 234.761 54.022V66.0322C236.247 66.4655 238.6 66.7751 240.767 66.7751C245.1 66.7751 247.453 64.2987 247.453 60.2128ZM289.332 67.7656C289.332 73.8945 284.689 75.8755 273.669 75.8755H268.221C268.84 80.0853 272.679 82.7473 277.569 82.7473C281.036 82.7473 285.122 82.0663 287.784 79.59H288.094V82.1901C288.094 86.4618 285.184 89.7429 276.022 89.7429C267.726 89.7429 259.616 83.1807 259.616 72.9659C259.616 61.8224 266.426 54.8268 275.96 54.8268C282.893 54.8268 289.332 59.7795 289.332 67.7656ZM281.531 66.7751C281.531 63.432 279.055 61.7605 275.217 61.7605C271.193 61.7605 268.407 65.0416 268.221 68.8799L268.159 69.9943H271.874C279.736 69.9943 281.531 69.1276 281.531 66.7751ZM325.091 89H322.862C319.148 89 316.795 86.6475 316.795 83.5521V70.3038C316.795 64.6702 314.319 62.1939 310.047 62.1939C306.457 62.1939 303.98 64.9178 303.98 69.6847V89H301.504C297.975 89 295.685 86.6475 295.685 83.5521V69.1276C295.685 62.0701 300.328 54.8268 310.728 54.8268C318.591 54.8268 325.091 60.089 325.091 69.5609V89ZM362.574 89H360.346C356.631 89 354.279 86.6475 354.279 83.5521V70.3038C354.279 64.6702 351.802 62.1939 347.531 62.1939C343.94 62.1939 341.464 64.9178 341.464 69.6847V89H338.987C335.459 89 333.168 86.6475 333.168 83.5521V69.1276C333.168 62.0701 337.811 54.8268 348.212 54.8268C356.074 54.8268 362.574 60.089 362.574 69.5609V89ZM389.781 81.8187C383.59 96.4289 380.309 99.8339 374.304 99.8339C371.208 99.8339 368.484 97.7909 368.484 94.6955V93.0859L373.189 92.7764C376.223 92.5907 377.275 91.3525 379.071 86.6475C374.675 80.0234 368.361 63.432 367.246 55.5697H371.642C373.932 55.5697 376.037 57.1174 376.471 59.4699C377.647 65.9083 380.123 72.842 383.157 78.7233C385.881 72.4706 388.914 62.3796 389.657 55.5697H393.248C395.91 55.5697 397.148 56.746 397.148 59.4699C397.148 62.9987 391.328 78.228 389.781 81.8187Z" fill="white"/>
<path d="M456.281 71.168C456.281 61.139 462.038 53.0909 472.81 53.0909C482.839 53.0909 488.597 61.139 488.597 69.9918C488.597 80.0209 482.839 88.007 472.067 88.007C462.038 88.007 456.281 80.0209 456.281 71.168ZM479.991 71.168C479.991 64.482 477.515 60.5199 472.067 60.5199C467.3 60.5199 464.886 64.482 464.886 69.9918C464.886 76.6159 467.3 80.578 472.81 80.578C477.639 80.578 479.991 76.6159 479.991 71.168Z" fill="#64BA0F"/>
<g clip-path="url(#clip0_24_227)">
<path d="M490.899 82.5408C485.366 93.0944 472.333 97.1864 461.758 91.6775C451.184 86.1686 447.069 73.143 452.547 62.5609L490.899 82.5408Z" fill="#FF7708"/>
<path d="M528.113 27.0936C529.062 26.9273 529.901 26.2312 529.934 25.1268C529.998 22.9977 526.725 21.632 525.137 20.9446C523.062 20.0468 520.544 19.6522 518.171 20.1468C515.782 20.6233 513.736 21.9003 512.105 23.3651C510.475 24.853 509.162 26.5399 508.046 28.2937C506.946 30.0288 505.976 31.8428 505.144 33.7208C504.305 35.5723 503.579 37.4565 502.929 39.3595C500.378 47.0081 498.992 54.762 496.976 62.2936C494.991 69.8005 492.373 77.1888 487.853 83.4252C487.692 83.6455 487.625 83.9202 487.665 84.1898C487.706 84.4595 487.851 84.7023 488.069 84.8656C488.288 85.029 488.562 85.0997 488.832 85.0624C489.102 85.0252 489.346 84.883 489.512 84.6666C491.965 81.4691 493.951 77.938 495.574 74.28C497.202 70.6188 498.48 66.8321 499.605 63.031C501.859 55.4385 503.482 47.7072 506.12 40.4986C507.466 36.9124 509.07 33.4069 511.15 30.3405C512.182 28.8071 513.359 27.4098 514.667 26.2823C515.98 25.17 517.436 24.369 518.931 24.1218C519.68 23.9894 520.446 23.9874 521.196 24.1158C521.577 24.1431 521.957 24.2938 522.339 24.3732C524.207 24.7625 525.215 26.6203 527.098 27.0665C527.431 27.1441 527.776 27.1533 528.113 27.0936Z" fill="#FF7708"/>
</g>
<defs>
<clipPath id="clip0_24_227">
<rect width="51.5406" height="92.1081" fill="white" transform="matrix(-0.886866 -0.462028 -0.462028 0.886866 530.849 23.8132)"/>
</clipPath>
</defs>
</svg>
