<svg width="371" height="285" viewBox="0 0 371 285" fill="none" xmlns="http://www.w3.org/2000/svg">
<g clip-path="url(#clip0_23_50)">
<path d="M206.353 19.4317C150.056 7.97452 96.9655 19.8353 67.2372 46.7162L323.807 98.9314C306.909 62.5614 262.649 30.8888 206.353 19.4317Z" fill="#72DD0C"/>
<path d="M249.505 281.503C206.434 285.194 163.127 285.194 120.056 281.503C70.3089 278.87 32.7849 231.039 34.6199 183.329C37.1174 156.869 39.6145 130.408 42.1113 103.948H327.449C329.947 130.408 332.444 156.869 334.941 183.329C341.095 233.734 295.655 275.169 249.505 281.503Z" fill="#72DD0C"/>
<path d="M308.797 163.425C310.148 157.181 311.954 151.045 314.199 145.065C316.549 138.819 319.602 132.862 323.299 127.308C327.132 121.686 331.768 116.269 337.612 111.971C343.51 107.608 350.157 104.366 357.223 102.404C359.8 101.679 362.559 102.009 364.893 103.32C367.227 104.632 368.946 106.819 369.671 109.399C370.397 111.98 370.07 114.743 368.761 117.082C367.453 119.421 365.272 121.144 362.696 121.873C362.37 121.964 362.045 122.039 361.719 122.097L361.502 122.134C356.718 122.938 352.116 124.59 347.912 127.012C343.611 129.454 339.78 133.019 336.316 137.067C332.794 141.303 329.766 145.929 327.291 150.853C324.689 156.029 322.474 161.39 320.663 166.893C320.155 168.392 319.093 169.64 317.695 170.379C316.298 171.119 314.671 171.294 313.148 170.87C311.625 170.446 310.322 169.454 309.507 168.098C308.691 166.742 308.425 165.125 308.762 163.578L308.797 163.425Z" fill="#72DD0C"/>
<path d="M49.3943 166.893C47.5832 161.39 45.3678 156.029 42.7664 150.853C40.2916 145.929 37.2638 141.303 33.7416 137.067C30.2771 133.019 26.4468 129.454 22.1456 127.012C17.941 124.59 13.3389 122.938 8.55551 122.134L8.35255 122.099C7.04666 121.869 5.79872 121.384 4.67996 120.672C3.5612 119.959 2.59354 119.033 1.83222 117.945C1.0709 116.858 0.530821 115.631 0.242849 114.335C-0.0451237 113.039 -0.0753582 111.698 0.153857 110.39C0.383072 109.082 0.867261 107.832 1.57877 106.712C2.29027 105.591 3.21516 104.622 4.30064 103.859C5.38612 103.097 6.61091 102.556 7.90511 102.267C9.1993 101.979 10.5375 101.948 11.8434 102.178C12.1765 102.236 12.5156 102.315 12.8344 102.404C19.9002 104.366 26.547 107.608 32.4451 111.971C38.2891 116.269 42.9245 121.686 46.7586 127.308C50.4554 132.862 53.5081 138.819 55.8578 145.065C58.1035 151.045 59.9092 157.181 61.2605 163.425L61.288 163.548C61.6335 165.096 61.3735 166.717 60.5616 168.078C59.7497 169.439 58.4477 170.437 56.9236 170.866C55.3995 171.294 53.7693 171.121 52.3687 170.382C50.968 169.643 49.9035 168.395 49.3943 166.893Z" fill="#72DD0C"/>
<path d="M225.609 11.2529C224.618 15.4911 215.499 28.5906 208.417 26.9292C201.335 25.2679 198.972 9.47481 199.963 5.23659C200.954 0.998363 207.498 -1.09061 214.58 0.570755C221.662 2.23212 226.6 7.01468 225.609 11.2529Z" fill="#72DD0C"/>
<path d="M313.598 126.338L315.143 160.127L315.917 177.021L316.111 181.244C316.18 182.654 316.232 184.122 316.246 185.558C316.278 188.445 316.185 191.329 315.965 194.209C315.922 194.771 315.662 195.294 315.24 195.667C314.819 196.04 314.269 196.235 313.707 196.209C313.145 196.183 312.615 195.939 312.229 195.529C311.844 195.118 311.633 194.574 311.641 194.01V193.999C311.691 191.248 311.617 188.498 311.421 185.752C311.326 184.373 311.196 183.028 311.046 181.629L310.603 177.424L308.831 160.605L305.286 126.967C305.17 125.865 305.496 124.763 306.191 123.902C306.887 123.041 307.895 122.492 308.995 122.375C310.095 122.259 311.195 122.585 312.055 123.282C312.915 123.979 313.463 124.989 313.579 126.09C313.587 126.169 313.593 126.26 313.598 126.338Z" fill="white"/>
<path d="M249.88 43.5684C266.197 48.3206 280.242 58.8341 289.415 73.162C289.631 73.5031 289.706 73.9156 289.623 74.3111C289.539 74.7066 289.305 75.0538 288.97 75.2786C288.634 75.5033 288.224 75.5877 287.828 75.5137C287.431 75.4397 287.079 75.2132 286.847 74.8826C277.612 61.8641 263.985 52.6343 248.483 48.8994C248.131 48.8167 247.799 48.6654 247.506 48.4541C247.212 48.2429 246.963 47.9757 246.773 47.6681C246.582 47.3604 246.454 47.0182 246.396 46.661C246.338 46.3037 246.35 45.9385 246.433 45.5861C246.515 45.2337 246.666 44.9011 246.877 44.6072C247.088 44.3133 247.355 44.0638 247.662 43.8731C247.969 43.6824 248.311 43.5542 248.668 43.4958C249.024 43.4374 249.389 43.4499 249.741 43.5326C249.783 43.542 249.824 43.5531 249.865 43.5642L249.88 43.5684Z" fill="white"/>
<path d="M109.907 167.632C109.561 168 109.302 168.108 108.48 168.108C107.528 168.108 106.706 167.74 106.317 166.789L105.214 164.107C104.543 162.484 103.916 162.376 103.137 162.246C102.488 162.138 101.969 162.052 101.666 162.052V168H100.715C99.3952 168 98.7031 167.2 98.7031 166.01V153.594C99.3303 153.356 101.407 153.054 102.51 153.054H104.154C107.096 153.054 109.021 154.827 109.021 157.315C109.021 159.326 107.701 160.992 105.971 161.251C106.771 161.576 107.442 162.463 107.809 163.328L108.999 166.097C109.367 166.962 109.734 167.373 109.907 167.632ZM103.808 155.606H102.986C102.705 155.606 101.991 155.671 101.666 155.757V159.672C102.315 159.802 102.986 159.802 103.786 159.802C104.997 159.802 106.014 159.11 106.014 157.791C106.014 155.995 105.106 155.606 103.808 155.606ZM121.967 165.231L121.945 166.27C121.924 167.459 121.318 168.108 118.722 168.108H117.143C113.531 168.108 111.628 166.118 111.628 162.333V159.586C111.628 158.18 111.736 156.601 111.909 155.411C112.147 153.638 112.969 153.183 114.18 153.183H121.924V154.178C121.924 155.217 121.296 155.736 119.934 155.736H114.851C114.699 156.817 114.634 158.266 114.634 159.197H120.345V160.256C120.345 161.23 119.739 161.619 118.549 161.619H114.634V162.484C114.634 165.058 115.478 165.556 117.771 165.556H118.722C119.804 165.556 120.907 165.469 121.967 165.231ZM135.671 164.561C135.671 166.789 134.438 168.26 130.739 168.26C126.803 168.26 123.342 165.404 123.342 160.776C123.342 156.406 126.392 152.924 131.453 152.924C134.222 152.924 135.433 154.46 135.433 155.844V156.861H135.325C134.33 156.017 132.665 155.606 131.107 155.606C128.36 155.606 126.392 157.618 126.392 160.365C126.392 164.107 128.425 165.577 131.086 165.577C132.513 165.577 132.859 165.037 132.859 164.171V162.982C132.859 161.814 132.643 160.819 132.643 160.819H134.157C134.979 160.819 135.671 161.533 135.671 162.182V164.561ZM140.977 168H139.852C138.987 168 138.057 167.329 138.057 166.032V153.183H139.398C140.155 153.183 140.977 153.811 140.977 154.762V168ZM153.878 163.414C153.878 166.334 151.888 168.26 148.298 168.26C145.313 168.26 143.777 167.092 143.777 165.34V164.02H143.842C144.837 164.907 146.178 165.621 147.973 165.621C150.201 165.621 150.915 164.864 150.915 163.674C150.915 162.657 150.526 162.203 147.389 161.533C144.88 160.992 143.453 159.737 143.453 157.726C143.453 155.26 145.529 152.924 149.012 152.924C152.472 152.924 153.467 154.395 153.467 155.628V156.99H153.381C152.472 156.017 151.153 155.541 149.531 155.541C147.238 155.541 146.394 156.298 146.394 157.445C146.394 158.331 147.086 158.872 149.855 159.456C152.559 160.019 153.878 161.424 153.878 163.414ZM166.711 154.114C166.711 154.827 165.91 155.779 164.937 155.779H162.212V168H161.022C159.984 168 159.227 167.329 159.227 166.01V155.779H154.966V154.806C154.966 154.092 155.55 153.183 156.761 153.183H166.711V154.114ZM178.492 165.231L178.471 166.27C178.449 167.459 177.843 168.108 175.248 168.108H173.669C170.057 168.108 168.153 166.118 168.153 162.333V159.586C168.153 158.18 168.261 156.601 168.434 155.411C168.672 153.638 169.494 153.183 170.705 153.183H178.449V154.178C178.449 155.217 177.822 155.736 176.459 155.736H171.376C171.225 156.817 171.16 158.266 171.16 159.197H176.87V160.256C176.87 161.23 176.264 161.619 175.075 161.619H171.16V162.484C171.16 165.058 172.003 165.556 174.296 165.556H175.248C176.329 165.556 177.432 165.469 178.492 165.231ZM191.569 167.632C191.223 168 190.963 168.108 190.142 168.108C189.19 168.108 188.368 167.74 187.979 166.789L186.875 164.107C186.205 162.484 185.578 162.376 184.799 162.246C184.15 162.138 183.631 162.052 183.328 162.052V168H182.376C181.057 168 180.365 167.2 180.365 166.01V153.594C180.992 153.356 183.069 153.054 184.172 153.054H185.816C188.757 153.054 190.682 154.827 190.682 157.315C190.682 159.326 189.363 160.992 187.632 161.251C188.433 161.576 189.103 162.463 189.471 163.328L190.661 166.097C191.028 166.962 191.396 167.373 191.569 167.632ZM185.469 155.606H184.647C184.366 155.606 183.653 155.671 183.328 155.757V159.672C183.977 159.802 184.647 159.802 185.448 159.802C186.659 159.802 187.676 159.11 187.676 157.791C187.676 155.995 186.767 155.606 185.469 155.606ZM208.64 154.114C208.64 154.827 207.84 155.779 206.866 155.779H204.141V168H202.951C201.913 168 201.156 167.329 201.156 166.01V155.779H196.895V154.806C196.895 154.092 197.479 153.183 198.69 153.183H208.64V154.114ZM223.558 160.365C223.558 164.864 220.984 168.26 216.463 168.26C212.721 168.26 209.693 165.253 209.693 160.819C209.693 156.212 212.289 152.924 216.788 152.924C220.378 152.924 223.558 155.671 223.558 160.365ZM220.508 160.776C220.508 157.293 219.016 155.541 216.506 155.541C214.322 155.541 212.743 157.336 212.743 160.365C212.743 163.934 214.041 165.686 216.744 165.686C219.037 165.686 220.508 164.042 220.508 160.776ZM241.452 163.414C241.452 166.399 239.073 168.065 236.369 168.065H234.768C232 168.065 230.637 166.854 230.637 164.539V153.789C231.351 153.53 233.319 153.119 234.552 153.119H236.347C239.181 153.119 241.193 154.611 241.193 157.034C241.193 158.677 240.306 159.737 238.835 160.17C240.327 160.581 241.452 162.117 241.452 163.414ZM238.229 157.293C238.229 155.995 237.04 155.584 235.936 155.584H234.833C234.466 155.584 233.968 155.671 233.557 155.736V159.088H235.828C237.148 159.088 238.229 158.569 238.229 157.293ZM238.467 163.501C238.467 161.9 237.667 161.381 235.936 161.381H233.579V164.431C233.579 164.95 234.141 165.361 234.877 165.361H236.088C237.688 165.361 238.467 164.626 238.467 163.501ZM253.986 165.231L253.964 166.27C253.943 167.459 253.337 168.108 250.741 168.108H249.163C245.55 168.108 243.647 166.118 243.647 162.333V159.586C243.647 158.18 243.755 156.601 243.928 155.411C244.166 153.638 244.988 153.183 246.199 153.183H253.943V154.178C253.943 155.217 253.315 155.736 251.953 155.736H246.87C246.718 156.817 246.653 158.266 246.653 159.197H252.364V160.256C252.364 161.23 251.758 161.619 250.568 161.619H246.653V162.484C246.653 165.058 247.497 165.556 249.79 165.556H250.741C251.823 165.556 252.926 165.469 253.986 165.231ZM272.485 168H271.274C270.041 168 269.392 167.286 269.284 166.572C269.154 165.599 269.024 164.842 268.873 164.215H262.968C262.665 165.469 262.405 166.745 262.189 168H261.043C260.069 168 259.68 167.481 259.68 166.572C259.68 164.431 262.449 155.714 264.72 153.183H265.931C267.121 153.183 267.921 153.832 268.332 154.546C269.673 156.947 271.901 163.328 272.485 168ZM268.202 161.857C267.705 159.781 266.688 157.293 265.91 155.909C265.044 157.445 264.114 159.802 263.617 161.857H268.202ZM120.789 180.114C120.789 180.806 120.27 181.649 119.102 181.649H114.538V185.326H119.881V186.213C119.881 187.165 119.124 187.684 118.453 187.684H114.646C114.646 191.988 114.646 194 114.646 194H113.414C112.332 194 111.683 193.438 111.683 192.27V181.476C111.683 179.638 112.419 179.183 114.149 179.183H120.789C120.789 179.27 120.789 180.114 120.789 180.114ZM135.675 186.365C135.675 190.864 133.101 194.26 128.581 194.26C124.839 194.26 121.811 191.253 121.811 186.819C121.811 182.212 124.406 178.924 128.905 178.924C132.496 178.924 135.675 181.671 135.675 186.365ZM132.626 186.776C132.626 183.293 131.133 181.541 128.624 181.541C126.439 181.541 124.86 183.336 124.86 186.365C124.86 189.934 126.158 191.686 128.862 191.686C131.155 191.686 132.626 190.042 132.626 186.776ZM151.349 186.365C151.349 190.864 148.775 194.26 144.254 194.26C140.512 194.26 137.484 191.253 137.484 186.819C137.484 182.212 140.079 178.924 144.579 178.924C148.169 178.924 151.349 181.671 151.349 186.365ZM148.299 186.776C148.299 183.293 146.806 181.541 144.297 181.541C142.113 181.541 140.534 183.336 140.534 186.365C140.534 189.934 141.832 191.686 144.535 191.686C146.828 191.686 148.299 190.042 148.299 186.776ZM165.811 186.365C165.811 190.842 162.869 194.13 158.997 194.13H157.764C155.255 194.13 153.655 193.135 153.655 190.842V179.703C154.368 179.421 156.185 179.14 157.31 179.14H158.846C162.242 179.14 165.811 181.411 165.811 186.365ZM162.783 186.776C162.783 183.466 160.944 181.628 158.392 181.628H157.743C157.375 181.628 156.618 181.779 156.618 181.779V190.28C156.618 191.145 157.007 191.534 158.11 191.534H158.608C161.052 191.534 162.783 189.458 162.783 186.776ZM185.574 192.637C185.574 193.719 185.163 194.281 184.147 194.281C183.498 194.281 182.719 194.151 181.962 193.416L181.205 192.681C180.6 193.351 179.41 194.26 177.182 194.26C173.916 194.26 172.229 192.421 172.229 189.955C172.229 188.16 173.656 186.624 175.106 185.802C174.392 184.98 173.721 183.942 173.721 182.947C173.721 181 175.192 179.14 178.004 179.14C180.21 179.14 181.724 180.438 181.724 182.558C181.724 184.029 180.47 185.37 178.588 186.429C179.215 187.23 180.448 188.679 181.248 189.458C182.006 188.614 182.719 187.035 182.763 185.672H183.347C183.995 185.672 184.558 186.083 184.558 187.187C184.558 188.398 183.541 190.042 182.806 191.037L183.238 191.448C184.212 192.378 184.839 192.594 185.574 192.637ZM179.259 182.623C179.259 181.714 178.739 181.238 177.874 181.238C176.901 181.238 176.382 181.779 176.382 182.796C176.382 183.596 176.944 184.202 177.377 184.829C178.653 184.093 179.259 183.466 179.259 182.623ZM179.691 191.123C178.869 190.323 177.139 188.441 176.468 187.489C175.733 187.922 174.997 188.701 174.997 189.652C174.997 191.34 175.927 191.967 177.55 191.967C178.307 191.967 179.194 191.642 179.691 191.123ZM204.318 186.365C204.318 190.842 201.376 194.13 197.505 194.13H196.272C193.763 194.13 192.162 193.135 192.162 190.842V179.703C192.876 179.421 194.693 179.14 195.817 179.14H197.353C200.749 179.14 204.318 181.411 204.318 186.365ZM201.29 186.776C201.29 183.466 199.451 181.628 196.899 181.628H196.25C195.882 181.628 195.125 181.779 195.125 181.779V190.28C195.125 191.145 195.515 191.534 196.618 191.534H197.115C199.559 191.534 201.29 189.458 201.29 186.776ZM217.751 193.632C217.405 194 217.145 194.108 216.324 194.108C215.372 194.108 214.55 193.74 214.161 192.789L213.057 190.107C212.387 188.484 211.76 188.376 210.981 188.246C210.332 188.138 209.813 188.052 209.51 188.052V194H208.558C207.239 194 206.547 193.2 206.547 192.01V179.594C207.174 179.356 209.251 179.054 210.354 179.054H211.998C214.939 179.054 216.864 180.827 216.864 183.315C216.864 185.326 215.545 186.992 213.814 187.251C214.615 187.576 215.285 188.463 215.653 189.328L216.843 192.097C217.21 192.962 217.578 193.373 217.751 193.632ZM211.651 181.606H210.83C210.548 181.606 209.835 181.671 209.51 181.757V185.672C210.159 185.802 210.83 185.802 211.63 185.802C212.841 185.802 213.858 185.11 213.858 183.791C213.858 181.995 212.949 181.606 211.651 181.606ZM222.565 194H221.44C220.575 194 219.645 193.329 219.645 192.032V179.183H220.986C221.743 179.183 222.565 179.811 222.565 180.762V194ZM237.543 194H236.375C235.228 194 233.974 193.654 232.135 190.085L229.431 184.829C229.02 184.007 228.696 183.445 228.436 183.098V194H227.268C226.403 194 225.473 193.351 225.473 192.053V179.183H226.944C228.891 179.183 230.145 180.222 231.14 182.212L233.736 187.403C234.039 188.008 234.385 188.895 234.601 189.393V179.183H235.92C236.677 179.183 237.543 179.94 237.543 180.892V194ZM241.317 179.183C242.744 179.183 243.285 180.135 243.285 181.173V185.802C244.604 183.856 245.924 181.822 247.546 180.092C248.325 179.248 248.649 179.183 249.795 179.183H251.829V179.292C250.682 180.46 247.741 183.985 246.248 186.105C247.632 188.117 248.974 190.366 250.855 191.967C251.288 192.313 251.591 192.464 252.023 192.572C251.764 193.632 251.31 194.065 250.12 194.065C249.406 194.065 248.563 193.697 248.043 193.113C246.227 191.015 244.756 188.874 243.285 186.516V194H242.311C240.884 194 240.365 193.005 240.365 191.988V179.183H241.317ZM263.539 189.414C263.539 192.334 261.549 194.26 257.958 194.26C254.973 194.26 253.437 193.092 253.437 191.34V190.02H253.502C254.497 190.907 255.838 191.621 257.634 191.621C259.861 191.621 260.575 190.864 260.575 189.674C260.575 188.657 260.186 188.203 257.05 187.533C254.541 186.992 253.113 185.737 253.113 183.726C253.113 181.26 255.189 178.924 258.672 178.924C262.133 178.924 263.128 180.395 263.128 181.628V182.99H263.041C262.133 182.017 260.813 181.541 259.191 181.541C256.898 181.541 256.055 182.298 256.055 183.445C256.055 184.331 256.747 184.872 259.515 185.456C262.219 186.019 263.539 187.424 263.539 189.414ZM154.238 213.165C153.351 215.328 152.313 217.75 150.82 220.108H150.561C149.674 220.108 148.938 219.762 148.419 218.919C146.083 215.112 144.137 209.899 143.466 205.183H145.175C146.278 205.183 146.905 205.919 147.057 206.806C147.533 209.531 148.29 212.256 150.042 215.977C151.621 212.559 152.789 208.925 153.351 205.183H154.995C155.709 205.183 156.271 205.638 156.271 206.46C156.271 207.282 155.211 210.807 154.238 213.165ZM168.279 217.231L168.258 218.27C168.236 219.459 167.63 220.108 165.035 220.108H163.456C159.844 220.108 157.94 218.118 157.94 214.333V211.586C157.94 210.18 158.048 208.601 158.221 207.411C158.459 205.638 159.281 205.183 160.492 205.183H168.236V206.178C168.236 207.217 167.609 207.736 166.246 207.736H161.163C161.012 208.817 160.947 210.266 160.947 211.197H166.657V212.256C166.657 213.23 166.051 213.619 164.862 213.619H160.947V214.484C160.947 217.058 161.79 217.556 164.083 217.556H165.035C166.116 217.556 167.219 217.469 168.279 217.231ZM182.221 220H181.053C179.907 220 178.652 219.654 176.814 216.085L174.11 210.829C173.699 210.007 173.375 209.445 173.115 209.098V220H171.947C171.082 220 170.152 219.351 170.152 218.053V205.183H171.623C173.569 205.183 174.824 206.222 175.819 208.212L178.414 213.403C178.717 214.008 179.063 214.895 179.28 215.393V205.183H180.599C181.356 205.183 182.221 205.94 182.221 206.892V220ZM197.2 212.365C197.2 216.842 194.258 220.13 190.386 220.13H189.153C186.644 220.13 185.044 219.135 185.044 216.842V205.703C185.757 205.421 187.574 205.14 188.699 205.14H190.235C193.631 205.14 197.2 207.411 197.2 212.365ZM194.171 212.776C194.171 209.466 192.333 207.628 189.78 207.628H189.132C188.764 207.628 188.007 207.779 188.007 207.779V216.28C188.007 217.145 188.396 217.534 189.499 217.534H189.997C192.441 217.534 194.171 215.458 194.171 212.776ZM212.796 212.365C212.796 216.864 210.222 220.26 205.701 220.26C201.959 220.26 198.931 217.253 198.931 212.819C198.931 208.212 201.526 204.924 206.025 204.924C209.616 204.924 212.796 207.671 212.796 212.365ZM209.746 212.776C209.746 209.293 208.253 207.541 205.744 207.541C203.56 207.541 201.981 209.336 201.981 212.365C201.981 215.934 203.278 217.686 205.982 217.686C208.275 217.686 209.746 216.042 209.746 212.776ZM226.306 219.632C225.96 220 225.7 220.108 224.878 220.108C223.927 220.108 223.105 219.74 222.715 218.789L221.612 216.107C220.942 214.484 220.314 214.376 219.536 214.246C218.887 214.138 218.368 214.052 218.065 214.052V220H217.113C215.794 220 215.102 219.2 215.102 218.01V205.594C215.729 205.356 217.805 205.054 218.908 205.054H220.552C223.494 205.054 225.419 206.827 225.419 209.315C225.419 211.326 224.1 212.992 222.369 213.251C223.17 213.576 223.84 214.463 224.208 215.328L225.397 218.097C225.765 218.962 226.133 219.373 226.306 219.632ZM220.206 207.606H219.384C219.103 207.606 218.389 207.671 218.065 207.757V211.672C218.714 211.802 219.384 211.802 220.185 211.802C221.396 211.802 222.413 211.11 222.413 209.791C222.413 207.995 221.504 207.606 220.206 207.606Z" fill="black"/>
</g>
<defs>
<clipPath id="clip0_23_50">
<rect width="370.058" height="284.272" fill="white"/>
</clipPath>
</defs>
</svg>
