<svg width="1440" height="206" viewBox="0 0 1440 206" fill="none" xmlns="http://www.w3.org/2000/svg">
<path d="M20.6646 23.1652C20.6646 37.15 58.8761 64.6581 58.8761 48.8386C58.8761 67.0884 102.167 51.0713 102.167 59.1885C102.167 84.09 146.166 55.1074 146.166 48.2773C146.166 57.4519 189.148 40.2903 189.148 35.5015C189.148 18.4275 223.344 10.6679 223.344 21.8491C223.344 20.644 261.977 31.6057 261.977 27.5808C261.977 23.7254 297.963 3.97189 297.963 19.3632C297.963 19.531 336.486 22.7392 336.486 9.68174C336.486 43.8606 371.18 24.8261 371.18 26.9454C371.18 29.0334 402.634 37.535 402.634 44.9383C402.634 70.6087 455.221 62.0117 455.221 54.0545C455.221 61.0418 496.51 31.3139 496.51 32.35C496.51 21.5269 539.344 24.2951 539.344 21.0346C539.344 24.0307 585.548 6.06434 585.548 24.1885C585.548 32.6104 627.993 38.3921 627.993 37.6961C627.993 54.1875 662.858 42.8514 662.858 56.2642C662.858 54.0921 707.734 68.0089 707.734 65.4557C707.734 84.5491 746.056 54.439 746.056 70.8765C746.056 74.4018 784.137 32.9438 784.137 53.8513C784.137 54.0084 822.593 81.9504 822.593 67.1557C822.593 64.2854 860.988 64.9741 860.988 72.1994C860.988 77.4832 899.336 65.024 899.336 73.5172C899.336 62.6235 937.255 59.7969 937.255 59.4685C937.255 45.8817 975.534 42.6263 975.534 59.5533C975.534 44.5858 1019.08 34.8336 1019.08 49.3122C1019.08 62.2182 1056.73 19.5754 1056.73 37.544C1056.73 22.109 1099.72 13.8352 1099.72 23.3847C1099.72 51.1673 1147.47 -5.67812 1147.47 0.519483C1147.47 -5.88242 1186.09 49.3583 1186.09 30.6342C1186.09 40.7758 1227.18 54.9037 1227.18 41.5217C1227.18 47.1951 1264.42 76.5122 1264.42 69.1797C1264.42 70.2624 1310.46 85.606 1310.46 72.6899C1310.46 55.8191 1351.1 32.1647 1351.1 47.6267C1351.1 66.7208 1397.81 45.2789 1397.81 49.7764C1397.81 44.1188 1432.14 38.4488 1432.14 25.4867C1432.14 24.0482 1435.53 27.3658 1440 31.8504V409.953C1430.79 404.264 1397.38 393.166 1397.38 403.928C1397.38 410.35 1343.58 405.807 1343.58 406.447C1343.58 426.492 1297.51 380.572 1297.51 378.574C1297.51 379.783 1264.11 390.45 1264.11 402.08C1264.11 413.49 1227.73 395.983 1227.73 391.47C1227.73 394.804 1223.3 350.682 1223.3 353.936C1223.3 374.468 1182.57 317.98 1182.57 338.541C1182.57 347.99 1141.55 357.75 1141.55 342.031C1141.55 334.859 1110.4 356.768 1110.4 361.394C1110.4 345.093 1081.09 381.296 1081.09 379.883C1081.09 383.708 1042.78 366.07 1042.78 374.248C1042.78 364.498 1007.66 372.16 1007.66 386.653C1007.66 382.175 971.138 378.912 971.138 373.243C971.138 382.459 933.718 393.844 933.718 393.844C933.718 397.995 896.86 385.828 896.86 388.523C896.86 392.67 856.672 383.551 856.672 382.229C856.672 388.394 818.352 389.565 818.352 388.091C818.352 370.797 782.135 415.176 782.135 398.397C782.135 398.133 755.247 431.991 755.247 433.765C755.247 448.387 714.511 445.216 714.511 429.624C714.511 432.449 676.569 425.771 676.569 427.965C676.569 431.413 640.399 410.51 640.399 426.533C640.399 425.783 587.648 440.922 587.648 438.711C587.648 448.521 539.998 431.491 539.998 433.002C539.998 428.175 493.826 404.85 493.826 405.684C493.826 409.891 446.655 409.696 446.655 410.905C446.655 414.251 404.888 417.64 404.888 416.611C404.888 420.532 365.97 404.656 365.97 409.101C365.97 406.628 329.265 397.862 329.265 397.821C329.265 394.574 290.154 410.991 290.154 388.652C290.154 391.412 250.251 403.009 250.251 394.749C250.251 400.136 209.04 404.424 209.04 393.24C209.04 395.621 168.759 406.172 168.759 400.042C168.759 399.412 138.193 435.114 138.193 429.363C138.193 434.82 90.1901 427.907 90.1901 418.7C90.1901 418.351 55.9736 443.541 55.9736 437.542C55.9736 443.133 6.33667 445.279 6.33667 448C6.33667 436.093 1.56982 397.134 1.56982 414.347C1.56982 416.651 0.950684 415.393 0 412.288V9.44095C10.3751 9.54254 20.6646 12.785 20.6646 23.1652Z" fill="#F7EDBB"/>
</svg>
