<svg width="371" height="285" viewBox="0 0 371 285" fill="none" xmlns="http://www.w3.org/2000/svg">
<g clip-path="url(#clip0_23_32)">
<path d="M206.353 19.4317C150.056 7.97452 96.9654 19.8353 67.2371 46.7162L323.807 98.9314C306.909 62.5614 262.649 30.8888 206.353 19.4317Z" fill="#FFBA08"/>
<path d="M249.505 281.503C206.434 285.194 163.127 285.194 120.056 281.503C70.3088 278.87 32.7848 231.039 34.6199 183.329C37.1173 156.869 39.6145 130.408 42.1113 103.948H327.449C329.946 130.408 332.444 156.869 334.941 183.329C341.095 233.734 295.655 275.169 249.505 281.503Z" fill="#FFBA08"/>
<path d="M308.797 163.425C310.148 157.181 311.954 151.045 314.199 145.065C316.549 138.819 319.602 132.862 323.298 127.308C327.132 121.686 331.768 116.269 337.612 111.971C343.51 107.608 350.157 104.366 357.223 102.404C359.8 101.679 362.558 102.009 364.893 103.32C367.227 104.632 368.946 106.819 369.671 109.399C370.397 111.98 370.069 114.743 368.761 117.082C367.453 119.421 365.271 121.144 362.696 121.873C362.37 121.964 362.045 122.039 361.719 122.097L361.502 122.134C356.718 122.938 352.116 124.59 347.912 127.012C343.61 129.454 339.78 133.019 336.316 137.067C332.793 141.303 329.766 145.929 327.291 150.853C324.689 156.029 322.474 161.39 320.663 166.893C320.155 168.392 319.093 169.64 317.695 170.379C316.298 171.119 314.671 171.294 313.148 170.87C311.625 170.446 310.322 169.454 309.507 168.098C308.691 166.742 308.425 165.125 308.762 163.578L308.797 163.425Z" fill="#FFBA08"/>
<path d="M49.3943 166.893C47.5831 161.39 45.3678 156.029 42.7664 150.853C40.2916 145.929 37.2637 141.303 33.7415 137.067C30.2771 133.019 26.4467 129.454 22.1455 127.012C17.9409 124.59 13.3389 122.938 8.55545 122.134L8.35248 122.099C7.0466 121.869 5.79866 121.384 4.6799 120.672C3.56114 119.959 2.59347 119.033 1.83216 117.945C1.07084 116.858 0.53076 115.631 0.242788 114.335C-0.0451848 113.039 -0.0754193 111.698 0.153796 110.39C0.383011 109.082 0.8672 107.832 1.57871 106.712C2.29021 105.591 3.2151 104.622 4.30058 103.859C5.38606 103.097 6.61085 102.556 7.90505 102.267C9.19924 101.979 10.5375 101.948 11.8434 102.178C12.1765 102.236 12.5156 102.315 12.8343 102.404C19.9001 104.366 26.5469 107.608 32.445 111.971C38.289 116.269 42.9244 121.686 46.7586 127.308C50.4553 132.862 53.5081 138.819 55.8577 145.065C58.1034 151.045 59.9091 157.181 61.2604 163.425L61.2879 163.548C61.6334 165.096 61.3735 166.717 60.5616 168.078C59.7497 169.439 58.4476 170.437 56.9235 170.866C55.3994 171.294 53.7692 171.121 52.3686 170.382C50.968 169.643 49.9035 168.395 49.3943 166.893Z" fill="#FFBA08"/>
<path d="M225.609 11.2529C224.618 15.4911 215.499 28.5906 208.417 26.9292C201.335 25.2679 198.972 9.47481 199.963 5.23659C200.954 0.998363 207.498 -1.09061 214.58 0.570755C221.662 2.23212 226.6 7.01468 225.609 11.2529Z" fill="#FFBA08"/>
<path d="M224.731 205.603C236.807 192.694 244.303 176.102 246.155 159.358C246.236 158.629 246.466 157.925 246.83 157.289C247.194 156.653 247.685 156.099 248.272 155.661C248.859 155.223 249.53 154.911 250.243 154.744C250.955 154.576 251.695 154.557 252.415 154.688C253.135 154.819 253.821 155.097 254.429 155.504C255.038 155.912 255.556 156.44 255.952 157.057C256.348 157.673 256.613 158.365 256.731 159.089C256.849 159.812 256.817 160.552 256.638 161.263L256.617 161.341C251.875 179.625 241.404 195.904 226.741 207.785C226.447 208.02 226.076 208.135 225.701 208.107C225.327 208.079 224.977 207.91 224.722 207.634C224.467 207.358 224.326 206.995 224.327 206.619C224.328 206.242 224.471 205.881 224.728 205.606L224.731 205.603Z" fill="#FFBA08"/>
<path d="M313.598 126.338L315.143 160.127L315.917 177.021L316.111 181.244C316.179 182.654 316.232 184.122 316.246 185.558C316.278 188.445 316.185 191.329 315.965 194.209C315.921 194.771 315.662 195.294 315.24 195.667C314.819 196.04 314.269 196.235 313.707 196.209C313.145 196.183 312.615 195.939 312.229 195.529C311.844 195.118 311.633 194.574 311.641 194.01V193.999C311.691 191.248 311.617 188.498 311.421 185.752C311.326 184.373 311.196 183.028 311.046 181.629L310.603 177.424L308.831 160.605L305.286 126.967C305.17 125.865 305.496 124.763 306.191 123.902C306.887 123.041 307.895 122.492 308.995 122.375C310.095 122.259 311.195 122.585 312.055 123.282C312.915 123.979 313.463 124.989 313.579 126.09C313.587 126.169 313.592 126.26 313.598 126.338Z" fill="white"/>
<path d="M249.88 43.5684C266.197 48.3206 280.242 58.8341 289.415 73.162C289.631 73.5031 289.706 73.9156 289.623 74.3111C289.539 74.7066 289.305 75.0538 288.97 75.2786C288.634 75.5033 288.224 75.5877 287.828 75.5137C287.431 75.4397 287.079 75.2132 286.847 74.8826C277.612 61.8641 263.985 52.6343 248.483 48.8994C248.131 48.8167 247.799 48.6654 247.506 48.4541C247.212 48.2429 246.963 47.9757 246.773 47.6681C246.582 47.3604 246.454 47.0182 246.396 46.661C246.338 46.3037 246.35 45.9385 246.433 45.5861C246.515 45.2337 246.666 44.9011 246.877 44.6072C247.088 44.3133 247.355 44.0638 247.662 43.8731C247.969 43.6824 248.311 43.5542 248.668 43.4958C249.024 43.4374 249.389 43.4499 249.741 43.5326C249.783 43.542 249.824 43.5531 249.865 43.5642L249.88 43.5684Z" fill="white"/>
<path d="M149.263 174.632C148.917 175 148.657 175.108 147.835 175.108C146.884 175.108 146.062 174.74 145.672 173.789L144.569 171.107C143.899 169.484 143.271 169.376 142.493 169.246C141.844 169.138 141.325 169.052 141.022 169.052V175H140.07C138.751 175 138.059 174.2 138.059 173.01V160.594C138.686 160.356 140.762 160.054 141.866 160.054H143.509C146.451 160.054 148.376 161.827 148.376 164.315C148.376 166.326 147.057 167.992 145.326 168.251C146.127 168.576 146.797 169.463 147.165 170.328L148.355 173.097C148.722 173.962 149.09 174.373 149.263 174.632ZM143.163 162.606H142.341C142.06 162.606 141.346 162.671 141.022 162.757V166.672C141.671 166.802 142.341 166.802 143.142 166.802C144.353 166.802 145.37 166.11 145.37 164.791C145.37 162.995 144.461 162.606 143.163 162.606ZM161.323 172.231L161.301 173.27C161.279 174.459 160.674 175.108 158.078 175.108H156.499C152.887 175.108 150.983 173.118 150.983 169.333V166.586C150.983 165.18 151.092 163.601 151.265 162.411C151.503 160.638 152.324 160.183 153.536 160.183H161.279V161.178C161.279 162.217 160.652 162.736 159.289 162.736H154.206C154.055 163.817 153.99 165.266 153.99 166.197H159.7V167.256C159.7 168.23 159.095 168.619 157.905 168.619H153.99V169.484C153.99 172.058 154.834 172.556 157.126 172.556H158.078C159.16 172.556 160.263 172.469 161.323 172.231ZM175.027 171.561C175.027 173.789 173.794 175.26 170.095 175.26C166.158 175.26 162.698 172.404 162.698 167.776C162.698 163.406 165.747 159.924 170.809 159.924C173.577 159.924 174.789 161.46 174.789 162.844V163.861H174.681C173.686 163.017 172.02 162.606 170.463 162.606C167.716 162.606 165.747 164.618 165.747 167.365C165.747 171.107 167.781 172.577 170.441 172.577C171.869 172.577 172.215 172.037 172.215 171.171V169.982C172.215 168.814 171.998 167.819 171.998 167.819H173.513C174.335 167.819 175.027 168.533 175.027 169.182V171.561ZM180.332 175H179.208C178.342 175 177.412 174.329 177.412 173.032V160.183H178.753C179.511 160.183 180.332 160.811 180.332 161.762V175ZM193.234 170.414C193.234 173.334 191.244 175.26 187.653 175.26C184.668 175.26 183.133 174.092 183.133 172.34V171.02H183.198C184.193 171.907 185.534 172.621 187.329 172.621C189.557 172.621 190.271 171.864 190.271 170.674C190.271 169.657 189.881 169.203 186.745 168.533C184.236 167.992 182.808 166.737 182.808 164.726C182.808 162.26 184.885 159.924 188.367 159.924C191.828 159.924 192.823 161.395 192.823 162.628V163.99H192.736C191.828 163.017 190.509 162.541 188.886 162.541C186.593 162.541 185.75 163.298 185.75 164.445C185.75 165.331 186.442 165.872 189.211 166.456C191.914 167.019 193.234 168.424 193.234 170.414ZM206.066 161.114C206.066 161.827 205.266 162.779 204.293 162.779H201.567V175H200.378C199.339 175 198.582 174.329 198.582 173.01V162.779H194.321V161.806C194.321 161.092 194.905 160.183 196.116 160.183H206.066V161.114ZM217.848 172.231L217.826 173.27C217.805 174.459 217.199 175.108 214.603 175.108H213.024C209.412 175.108 207.509 173.118 207.509 169.333V166.586C207.509 165.18 207.617 163.601 207.79 162.411C208.028 160.638 208.85 160.183 210.061 160.183H217.805V161.178C217.805 162.217 217.177 162.736 215.815 162.736H210.732C210.58 163.817 210.515 165.266 210.515 166.197H216.226V167.256C216.226 168.23 215.62 168.619 214.43 168.619H210.515V169.484C210.515 172.058 211.359 172.556 213.652 172.556H214.603C215.685 172.556 216.788 172.469 217.848 172.231ZM230.925 174.632C230.579 175 230.319 175.108 229.497 175.108C228.545 175.108 227.723 174.74 227.334 173.789L226.231 171.107C225.56 169.484 224.933 169.376 224.154 169.246C223.506 169.138 222.986 169.052 222.684 169.052V175H221.732C220.413 175 219.72 174.2 219.72 173.01V160.594C220.348 160.356 222.424 160.054 223.527 160.054H225.171C228.113 160.054 230.038 161.827 230.038 164.315C230.038 166.326 228.718 167.992 226.988 168.251C227.788 168.576 228.459 169.463 228.827 170.328L230.016 173.097C230.384 173.962 230.752 174.373 230.925 174.632ZM224.825 162.606H224.003C223.722 162.606 223.008 162.671 222.684 162.757V166.672C223.333 166.802 224.003 166.802 224.803 166.802C226.015 166.802 227.031 166.11 227.031 164.791C227.031 162.995 226.123 162.606 224.825 162.606ZM140.205 187.114C140.205 187.827 139.404 188.779 138.431 188.779H135.706V201H134.516C133.478 201 132.721 200.329 132.721 199.01V188.779H128.459V187.806C128.459 187.092 129.043 186.183 130.255 186.183H140.205V187.114ZM155.123 193.365C155.123 197.864 152.549 201.26 148.028 201.26C144.286 201.26 141.258 198.253 141.258 193.819C141.258 189.212 143.853 185.924 148.352 185.924C151.943 185.924 155.123 188.671 155.123 193.365ZM152.073 193.776C152.073 190.293 150.58 188.541 148.071 188.541C145.887 188.541 144.308 190.336 144.308 193.365C144.308 196.934 145.605 198.686 148.309 198.686C150.602 198.686 152.073 197.042 152.073 193.776ZM174.055 201H172.844C171.611 201 170.962 200.286 170.854 199.572C170.724 198.599 170.594 197.842 170.443 197.215H164.538C164.235 198.469 163.975 199.745 163.759 201H162.613C161.639 201 161.25 200.481 161.25 199.572C161.25 197.431 164.019 188.714 166.29 186.183H167.501C168.691 186.183 169.491 186.832 169.902 187.546C171.243 189.947 173.471 196.328 174.055 201ZM169.772 194.857C169.275 192.781 168.258 190.293 167.479 188.909C166.614 190.445 165.684 192.802 165.187 194.857H169.772ZM186.126 187.114C186.126 187.827 185.326 188.779 184.352 188.779H181.627V201H180.437C179.399 201 178.642 200.329 178.642 199.01V188.779H174.381V187.806C174.381 187.092 174.965 186.183 176.176 186.183H186.126V187.114ZM198.124 187.114C198.124 187.827 197.324 188.779 196.35 188.779H193.625V201H192.435C191.397 201 190.64 200.329 190.64 199.01V188.779H186.379V187.806C186.379 187.092 186.963 186.183 188.174 186.183H198.124V187.114ZM209.906 198.231L209.884 199.27C209.862 200.459 209.257 201.108 206.661 201.108H205.082C201.47 201.108 199.566 199.118 199.566 195.333V192.586C199.566 191.18 199.675 189.601 199.848 188.411C200.086 186.638 200.907 186.183 202.119 186.183H209.862V187.178C209.862 188.217 209.235 188.736 207.872 188.736H202.789C202.638 189.817 202.573 191.266 202.573 192.197H208.283V193.256C208.283 194.23 207.678 194.619 206.488 194.619H202.573V195.484C202.573 198.058 203.417 198.556 205.709 198.556H206.661C207.743 198.556 208.846 198.469 209.906 198.231ZM223.848 201H222.68C221.533 201 220.279 200.654 218.44 197.085L215.736 191.829C215.325 191.007 215.001 190.445 214.741 190.098V201H213.573C212.708 201 211.778 200.351 211.778 199.053V186.183H213.249C215.196 186.183 216.45 187.222 217.445 189.212L220.041 194.403C220.344 195.008 220.69 195.895 220.906 196.393V186.183H222.225C222.982 186.183 223.848 186.94 223.848 187.892V201ZM238.826 193.365C238.826 197.842 235.884 201.13 232.012 201.13H230.78C228.27 201.13 226.67 200.135 226.67 197.842V186.703C227.384 186.421 229.201 186.14 230.325 186.14H231.861C235.257 186.14 238.826 188.411 238.826 193.365ZM235.798 193.776C235.798 190.466 233.959 188.628 231.407 188.628H230.758C230.39 188.628 229.633 188.779 229.633 188.779V197.28C229.633 198.145 230.022 198.534 231.126 198.534H231.623C234.067 198.534 235.798 196.458 235.798 193.776Z" fill="black"/>
</g>
<defs>
<clipPath id="clip0_23_32">
<rect width="370.058" height="284.272" fill="white"/>
</clipPath>
</defs>
</svg>
